# MagicaVoxel @ Ephtracy

# group
o 

# material
mtllib Enemy.mtl
usemtl palette

# normals
vn -1 0 0
vn 1 0 0
vn 0 0 1
vn 0 0 -1
vn 0 -1 0
vn 0 1 0

# texcoords
vt 0.0175781 0.5
vt 0.0214844 0.5
vt 0.0292969 0.5
vt 0.841797 0.5
vt 0.994141 0.5

# verts
v -0.5 0.5 -1.49012e-08
v -0.5 0.5 -0.1
v -0.5 0.6 -1.49012e-08
v -0.5 0.6 -0.1
v -0.4 0.3 -1.49012e-08
v -0.4 0.3 -0.1
v -0.4 0.5 0.1
v -0.4 0.5 -1.49012e-08
v -0.4 0.5 -0.1
v -0.4 0.5 -0.2
v -0.4 0.6 -1.49012e-08
v -0.4 0.6 -0.1
v -0.4 0.7 0.1
v -0.4 0.7 -0.2
v -0.3 0.2 0.1
v -0.3 0.2 -0.2
v -0.3 0.3 -1.49012e-08
v -0.3 0.3 -0.1
v -0.3 0.4 0.1
v -0.3 0.4 -1.49012e-08
v -0.3 0.4 -0.1
v -0.3 0.4 -0.2
v -0.3 0.5 0.1
v -0.3 0.5 -1.49012e-08
v -0.3 0.5 -0.1
v -0.3 0.5 -0.2
v -0.3 0.7 0.1
v -0.3 0.7 -0.2
v -0.3 0.9 0.1
v -0.3 0.9 -0.2
v -0.3 1 0.1
v -0.3 1 -0.2
v -0.2 0 0.1
v -0.2 0 -0.1
v -0.2 0.1 0.1
v -0.2 0.1 -1.49012e-08
v -0.2 0.1 -0.1
v -0.2 0.2 -1.49012e-08
v -0.2 0.2 -0.1
v 0.1 0 0.1
v 0.1 0 -0.1
v 0.1 0.1 0.1
v 0.1 0.1 -1.49012e-08
v 0.1 0.1 -0.1
v 0.1 0.2 0.1
v 0.1 0.2 -1.49012e-08
v 0.1 0.2 -0.1
v 0.1 0.2 -0.2
v 0.1 0.3 0.1
v 0.1 0.3 -1.49012e-08
v 0.1 0.3 -0.1
v 0.1 0.3 -0.2
v -0.1 0 0.1
v -0.1 0 -0.1
v -0.1 0.1 0.1
v -0.1 0.1 -1.49012e-08
v -0.1 0.1 -0.1
v -0.1 0.2 0.1
v -0.1 0.2 -1.49012e-08
v -0.1 0.2 -0.1
v -0.1 0.2 -0.2
v -0.1 0.3 0.1
v -0.1 0.3 -1.49012e-08
v -0.1 0.3 -0.1
v -0.1 0.3 -0.2
v 0.2 0 0.1
v 0.2 0 -0.1
v 0.2 0.1 0.1
v 0.2 0.1 -1.49012e-08
v 0.2 0.1 -0.1
v 0.2 0.2 -1.49012e-08
v 0.2 0.2 -0.1
v 0.3 0.2 0.1
v 0.3 0.2 -0.2
v 0.3 0.3 -1.49012e-08
v 0.3 0.3 -0.1
v 0.3 0.4 0.1
v 0.3 0.4 -1.49012e-08
v 0.3 0.4 -0.1
v 0.3 0.4 -0.2
v 0.3 0.5 0.1
v 0.3 0.5 -1.49012e-08
v 0.3 0.5 -0.1
v 0.3 0.5 -0.2
v 0.3 0.7 0.1
v 0.3 0.7 -0.2
v 0.3 0.9 0.1
v 0.3 0.9 -0.2
v 0.3 1 0.1
v 0.3 1 -0.2
v 0.4 0.3 -1.49012e-08
v 0.4 0.3 -0.1
v 0.4 0.5 0.1
v 0.4 0.5 -1.49012e-08
v 0.4 0.5 -0.1
v 0.4 0.5 -0.2
v 0.4 0.6 -1.49012e-08
v 0.4 0.6 -0.1
v 0.4 0.7 0.1
v 0.4 0.7 -0.2
v 0.5 0.5 -1.49012e-08
v 0.5 0.5 -0.1
v 0.5 0.6 -1.49012e-08
v 0.5 0.6 -0.1
v -0.4 0.5 0.1
v -0.4 0.7 0.1
v -0.3 0.2 0.1
v -0.3 0.4 0.1
v -0.3 0.5 0.1
v -0.3 0.7 0.1
v -0.3 0.9 0.1
v -0.3 1 0.1
v -0.2 0 0.1
v -0.2 0.1 0.1
v -0.2 0.8 0.1
v -0.2 0.9 0.1
v -0.1 0 0.1
v -0.1 0.1 0.1
v -0.1 0.2 0.1
v -0.1 0.3 0.1
v -0.1 0.8 0.1
v -0.1 0.9 0.1
v 0.1 0 0.1
v 0.1 0.1 0.1
v 0.1 0.2 0.1
v 0.1 0.3 0.1
v 0.1 0.8 0.1
v 0.1 0.9 0.1
v 0.2 0 0.1
v 0.2 0.1 0.1
v 0.2 0.8 0.1
v 0.2 0.9 0.1
v 0.3 0.2 0.1
v 0.3 0.4 0.1
v 0.3 0.5 0.1
v 0.3 0.7 0.1
v 0.3 0.9 0.1
v 0.3 1 0.1
v 0.4 0.5 0.1
v 0.4 0.7 0.1
v -0.5 0.5 -1.49012e-08
v -0.5 0.6 -1.49012e-08
v -0.4 0.3 -1.49012e-08
v -0.4 0.5 -1.49012e-08
v -0.4 0.6 -1.49012e-08
v -0.3 0.3 -1.49012e-08
v -0.3 0.4 -1.49012e-08
v -0.3 0.5 -1.49012e-08
v -0.2 0.1 -1.49012e-08
v -0.2 0.2 -1.49012e-08
v -0.1 0.1 -1.49012e-08
v -0.1 0.2 -1.49012e-08
v 0.1 0.1 -1.49012e-08
v 0.1 0.2 -1.49012e-08
v 0.2 0.1 -1.49012e-08
v 0.2 0.2 -1.49012e-08
v 0.3 0.3 -1.49012e-08
v 0.3 0.4 -1.49012e-08
v 0.3 0.5 -1.49012e-08
v 0.4 0.3 -1.49012e-08
v 0.4 0.5 -1.49012e-08
v 0.4 0.6 -1.49012e-08
v 0.5 0.5 -1.49012e-08
v 0.5 0.6 -1.49012e-08
v -0.5 0.5 -0.1
v -0.5 0.6 -0.1
v -0.4 0.3 -0.1
v -0.4 0.5 -0.1
v -0.4 0.6 -0.1
v -0.3 0.3 -0.1
v -0.3 0.4 -0.1
v -0.3 0.5 -0.1
v -0.2 0 -0.1
v -0.2 0.1 -0.1
v -0.2 0.2 -0.1
v -0.1 0 -0.1
v -0.1 0.1 -0.1
v -0.1 0.2 -0.1
v 0.1 0 -0.1
v 0.1 0.1 -0.1
v 0.1 0.2 -0.1
v 0.2 0 -0.1
v 0.2 0.1 -0.1
v 0.2 0.2 -0.1
v 0.3 0.3 -0.1
v 0.3 0.4 -0.1
v 0.3 0.5 -0.1
v 0.4 0.3 -0.1
v 0.4 0.5 -0.1
v 0.4 0.6 -0.1
v 0.5 0.5 -0.1
v 0.5 0.6 -0.1
v -0.4 0.5 -0.2
v -0.4 0.7 -0.2
v -0.3 0.2 -0.2
v -0.3 0.4 -0.2
v -0.3 0.5 -0.2
v -0.3 0.7 -0.2
v -0.3 0.9 -0.2
v -0.3 1 -0.2
v -0.1 0.2 -0.2
v -0.1 0.3 -0.2
v 0.1 0.2 -0.2
v 0.1 0.3 -0.2
v 0.3 0.2 -0.2
v 0.3 0.4 -0.2
v 0.3 0.5 -0.2
v 0.3 0.7 -0.2
v 0.3 0.9 -0.2
v 0.3 1 -0.2
v 0.4 0.5 -0.2
v 0.4 0.7 -0.2
v -0.2 0 0.1
v -0.1 0 0.1
v 0.1 0 0.1
v 0.2 0 0.1
v -0.2 0 -0.1
v -0.1 0 -0.1
v 0.1 0 -0.1
v 0.2 0 -0.1
v -0.3 0.2 0.1
v -0.1 0.2 0.1
v 0.1 0.2 0.1
v 0.3 0.2 0.1
v -0.2 0.2 -1.49012e-08
v -0.1 0.2 -1.49012e-08
v 0.1 0.2 -1.49012e-08
v 0.2 0.2 -1.49012e-08
v -0.2 0.2 -0.1
v -0.1 0.2 -0.1
v 0.1 0.2 -0.1
v 0.2 0.2 -0.1
v -0.3 0.2 -0.2
v -0.1 0.2 -0.2
v 0.1 0.2 -0.2
v 0.3 0.2 -0.2
v -0.1 0.3 0.1
v 0.1 0.3 0.1
v -0.4 0.3 -1.49012e-08
v -0.3 0.3 -1.49012e-08
v -0.1 0.3 -1.49012e-08
v 0.1 0.3 -1.49012e-08
v 0.3 0.3 -1.49012e-08
v 0.4 0.3 -1.49012e-08
v -0.4 0.3 -0.1
v -0.3 0.3 -0.1
v -0.1 0.3 -0.1
v 0.1 0.3 -0.1
v 0.3 0.3 -0.1
v 0.4 0.3 -0.1
v -0.1 0.3 -0.2
v 0.1 0.3 -0.2
v -0.4 0.5 0.1
v -0.3 0.5 0.1
v 0.3 0.5 0.1
v 0.4 0.5 0.1
v -0.5 0.5 -1.49012e-08
v -0.4 0.5 -1.49012e-08
v -0.3 0.5 -1.49012e-08
v 0.3 0.5 -1.49012e-08
v 0.4 0.5 -1.49012e-08
v 0.5 0.5 -1.49012e-08
v -0.5 0.5 -0.1
v -0.4 0.5 -0.1
v -0.3 0.5 -0.1
v 0.3 0.5 -0.1
v 0.4 0.5 -0.1
v 0.5 0.5 -0.1
v -0.4 0.5 -0.2
v -0.3 0.5 -0.2
v 0.3 0.5 -0.2
v 0.4 0.5 -0.2
v -0.2 0.1 0.1
v -0.1 0.1 0.1
v 0.1 0.1 0.1
v 0.2 0.1 0.1
v -0.2 0.1 -1.49012e-08
v -0.1 0.1 -1.49012e-08
v 0.1 0.1 -1.49012e-08
v 0.2 0.1 -1.49012e-08
v -0.5 0.6 -1.49012e-08
v -0.4 0.6 -1.49012e-08
v 0.4 0.6 -1.49012e-08
v 0.5 0.6 -1.49012e-08
v -0.5 0.6 -0.1
v -0.4 0.6 -0.1
v 0.4 0.6 -0.1
v 0.5 0.6 -0.1
v -0.4 0.7 0.1
v -0.3 0.7 0.1
v 0.3 0.7 0.1
v 0.4 0.7 0.1
v -0.4 0.7 -0.2
v -0.3 0.7 -0.2
v 0.3 0.7 -0.2
v 0.4 0.7 -0.2
v -0.3 1 0.1
v 0.3 1 0.1
v -0.3 1 -0.2
v 0.3 1 -0.2

# faces
f 3/4/1 2/4/1 1/4/1
f 4/4/1 2/4/1 3/4/1
f 8/3/1 6/3/1 5/3/1
f 9/3/1 6/3/1 8/3/1
f 11/4/1 8/4/1 7/4/1
f 12/4/1 10/4/1 9/4/1
f 13/4/1 11/4/1 7/4/1
f 13/4/1 12/4/1 11/4/1
f 14/4/1 10/4/1 12/4/1
f 14/4/1 12/4/1 13/4/1
f 17/2/1 16/2/1 15/2/1
f 18/2/1 16/2/1 17/2/1
f 19/2/1 17/2/1 15/2/1
f 20/2/1 17/2/1 19/2/1
f 21/2/1 16/2/1 18/2/1
f 22/2/1 16/2/1 21/2/1
f 23/4/1 20/4/1 19/4/1
f 24/4/1 20/4/1 23/4/1
f 25/4/1 22/4/1 21/4/1
f 26/4/1 22/4/1 25/4/1
f 29/3/1 28/3/1 27/3/1
f 30/3/1 28/3/1 29/3/1
f 31/5/1 30/5/1 29/5/1
f 32/5/1 30/5/1 31/5/1
f 35/1/1 34/1/1 33/1/1
f 36/1/1 34/1/1 35/1/1
f 37/1/1 34/1/1 36/1/1
f 38/3/1 37/3/1 36/3/1
f 39/3/1 37/3/1 38/3/1
f 42/1/1 41/1/1 40/1/1
f 43/1/1 41/1/1 42/1/1
f 44/1/1 41/1/1 43/1/1
f 46/3/1 44/3/1 43/3/1
f 47/3/1 44/3/1 46/3/1
f 49/2/1 46/2/1 45/2/1
f 50/3/1 47/3/1 46/3/1
f 50/2/1 46/2/1 49/2/1
f 51/2/1 48/2/1 47/2/1
f 51/3/1 47/3/1 50/3/1
f 52/2/1 48/2/1 51/2/1
f 53/1/2 54/1/2 55/1/2
f 55/1/2 54/1/2 56/1/2
f 56/1/2 54/1/2 57/1/2
f 56/3/2 57/3/2 59/3/2
f 59/3/2 57/3/2 60/3/2
f 58/2/2 59/2/2 62/2/2
f 59/3/2 60/3/2 63/3/2
f 62/2/2 59/2/2 63/2/2
f 60/2/2 61/2/2 64/2/2
f 63/3/2 60/3/2 64/3/2
f 64/2/2 61/2/2 65/2/2
f 66/1/2 67/1/2 68/1/2
f 68/1/2 67/1/2 69/1/2
f 69/1/2 67/1/2 70/1/2
f 69/3/2 70/3/2 71/3/2
f 71/3/2 70/3/2 72/3/2
f 73/2/2 74/2/2 75/2/2
f 75/2/2 74/2/2 76/2/2
f 73/2/2 75/2/2 77/2/2
f 77/2/2 75/2/2 78/2/2
f 76/2/2 74/2/2 79/2/2
f 79/2/2 74/2/2 80/2/2
f 77/4/2 78/4/2 81/4/2
f 81/4/2 78/4/2 82/4/2
f 79/4/2 80/4/2 83/4/2
f 83/4/2 80/4/2 84/4/2
f 85/3/2 86/3/2 87/3/2
f 87/3/2 86/3/2 88/3/2
f 87/5/2 88/5/2 89/5/2
f 89/5/2 88/5/2 90/5/2
f 91/3/2 92/3/2 94/3/2
f 94/3/2 92/3/2 95/3/2
f 93/4/2 94/4/2 97/4/2
f 95/4/2 96/4/2 98/4/2
f 93/4/2 97/4/2 99/4/2
f 97/4/2 98/4/2 99/4/2
f 98/4/2 96/4/2 100/4/2
f 99/4/2 98/4/2 100/4/2
f 101/4/2 102/4/2 103/4/2
f 103/4/2 102/4/2 104/4/2
f 109/4/3 106/4/3 105/4/3
f 110/4/3 106/4/3 109/4/3
f 115/3/3 111/3/3 110/3/3
f 116/5/3 112/5/3 111/5/3
f 116/3/3 111/3/3 115/3/3
f 117/1/3 114/1/3 113/1/3
f 118/1/3 114/1/3 117/1/3
f 119/2/3 108/2/3 107/2/3
f 120/2/3 108/2/3 119/2/3
f 121/3/3 115/3/3 110/3/3
f 121/5/3 116/5/3 115/5/3
f 122/5/3 112/5/3 116/5/3
f 122/5/3 116/5/3 121/5/3
f 126/2/3 108/2/3 120/2/3
f 127/3/3 121/3/3 110/3/3
f 127/3/3 122/3/3 121/3/3
f 128/5/3 112/5/3 122/5/3
f 128/3/3 122/3/3 127/3/3
f 129/1/3 124/1/3 123/1/3
f 130/1/3 124/1/3 129/1/3
f 131/3/3 127/3/3 110/3/3
f 131/5/3 128/5/3 127/5/3
f 132/5/3 112/5/3 128/5/3
f 132/5/3 128/5/3 131/5/3
f 133/2/3 126/2/3 125/2/3
f 134/4/3 109/4/3 108/4/3
f 134/2/3 126/2/3 133/2/3
f 134/4/3 110/4/3 109/4/3
f 134/2/3 108/2/3 126/2/3
f 135/4/3 110/4/3 134/4/3
f 136/3/3 132/3/3 131/3/3
f 136/4/3 110/4/3 135/4/3
f 136/3/3 131/3/3 110/3/3
f 137/5/3 112/5/3 132/5/3
f 137/3/3 132/3/3 136/3/3
f 138/5/3 112/5/3 137/5/3
f 139/4/3 136/4/3 135/4/3
f 140/4/3 136/4/3 139/4/3
f 144/4/3 142/4/3 141/4/3
f 145/4/3 142/4/3 144/4/3
f 146/3/3 144/3/3 143/3/3
f 147/3/3 144/3/3 146/3/3
f 148/3/3 144/3/3 147/3/3
f 151/3/3 150/3/3 149/3/3
f 152/3/3 150/3/3 151/3/3
f 155/3/3 154/3/3 153/3/3
f 156/3/3 154/3/3 155/3/3
f 160/3/3 158/3/3 157/3/3
f 160/3/3 159/3/3 158/3/3
f 161/3/3 159/3/3 160/3/3
f 163/4/3 162/4/3 161/4/3
f 164/4/3 162/4/3 163/4/3
f 165/4/4 166/4/4 168/4/4
f 168/4/4 166/4/4 169/4/4
f 167/3/4 168/3/4 170/3/4
f 170/3/4 168/3/4 171/3/4
f 171/3/4 168/3/4 172/3/4
f 173/1/4 174/1/4 176/1/4
f 174/3/4 175/3/4 177/3/4
f 176/1/4 174/1/4 177/1/4
f 177/3/4 175/3/4 178/3/4
f 179/1/4 180/1/4 182/1/4
f 180/3/4 181/3/4 183/3/4
f 182/1/4 180/1/4 183/1/4
f 183/3/4 181/3/4 184/3/4
f 185/3/4 186/3/4 188/3/4
f 186/3/4 187/3/4 188/3/4
f 188/3/4 187/3/4 189/3/4
f 189/4/4 190/4/4 191/4/4
f 191/4/4 190/4/4 192/4/4
f 193/4/4 194/4/4 197/4/4
f 197/4/4 194/4/4 198/4/4
f 195/2/4 196/2/4 201/2/4
f 201/2/4 196/2/4 202/2/4
f 202/2/4 196/2/4 204/2/4
f 203/2/4 204/2/4 205/2/4
f 196/4/4 197/4/4 206/4/4
f 205/2/4 204/2/4 206/2/4
f 197/4/4 198/4/4 206/4/4
f 204/2/4 196/2/4 206/2/4
f 206/4/4 198/4/4 207/4/4
f 198/3/4 199/3/4 208/3/4
f 207/4/4 198/4/4 208/4/4
f 199/5/4 200/5/4 209/5/4
f 208/3/4 199/3/4 209/3/4
f 209/5/4 200/5/4 210/5/4
f 207/4/4 208/4/4 211/4/4
f 211/4/4 208/4/4 212/4/4
f 217/1/5 214/1/5 213/1/5
f 218/1/5 214/1/5 217/1/5
f 219/1/5 216/1/5 215/1/5
f 220/1/5 216/1/5 219/1/5
f 225/2/5 222/2/5 221/2/5
f 226/2/5 222/2/5 225/2/5
f 227/2/5 224/2/5 223/2/5
f 228/2/5 224/2/5 227/2/5
f 229/2/5 225/2/5 221/2/5
f 232/2/5 224/2/5 228/2/5
f 233/2/5 230/2/5 229/2/5
f 233/2/5 229/2/5 221/2/5
f 234/2/5 230/2/5 233/2/5
f 235/2/5 232/2/5 231/2/5
f 236/2/5 224/2/5 232/2/5
f 236/2/5 232/2/5 235/2/5
f 241/2/5 238/2/5 237/2/5
f 242/2/5 238/2/5 241/2/5
f 245/3/5 240/3/5 239/3/5
f 246/3/5 240/3/5 245/3/5
f 247/2/5 242/2/5 241/2/5
f 248/2/5 242/2/5 247/2/5
f 249/3/5 244/3/5 243/3/5
f 250/3/5 244/3/5 249/3/5
f 251/2/5 248/2/5 247/2/5
f 252/2/5 248/2/5 251/2/5
f 258/4/5 254/4/5 253/4/5
f 259/4/5 254/4/5 258/4/5
f 260/4/5 256/4/5 255/4/5
f 261/4/5 256/4/5 260/4/5
f 263/4/5 258/4/5 257/4/5
f 264/4/5 258/4/5 263/4/5
f 267/4/5 262/4/5 261/4/5
f 268/4/5 262/4/5 267/4/5
f 269/4/5 265/4/5 264/4/5
f 270/4/5 265/4/5 269/4/5
f 271/4/5 267/4/5 266/4/5
f 272/4/5 267/4/5 271/4/5
f 273/1/6 274/1/6 277/1/6
f 277/1/6 274/1/6 278/1/6
f 275/1/6 276/1/6 279/1/6
f 279/1/6 276/1/6 280/1/6
f 281/4/6 282/4/6 285/4/6
f 285/4/6 282/4/6 286/4/6
f 283/4/6 284/4/6 287/4/6
f 287/4/6 284/4/6 288/4/6
f 289/4/6 290/4/6 293/4/6
f 293/4/6 290/4/6 294/4/6
f 291/4/6 292/4/6 295/4/6
f 295/4/6 292/4/6 296/4/6
f 297/5/6 298/5/6 299/5/6
f 299/5/6 298/5/6 300/5/6
